<svg width="595.3013427734375px" height="122.021240234375px" xmlns="http://www.w3.org/2000/svg" viewBox="-47.65067138671873 13.9893798828125 595.3013427734375 122.021240234375" style="background: rgba(0, 0, 0, 0);" preserveAspectRatio="xMidYMid"><defs><filter id="editing-metal-beveled"><feGaussianBlur stdDeviation="4" in="SourceAlpha" result="blur"></feGaussianBlur><feSpecularLighting surfaceScale="5" specularConstant="0.8" specularExponent="7.5" lighting-color="#fff" in="blur" result="specular"><fePointLight x="-250" y="-50" z="300"></fePointLight></feSpecularLighting><feComposite operator="in" in="specular" in2="SourceAlpha" result="comp"></feComposite><feComposite in="SourceGraphic" in2="comp" operator="arithmetic" k1="0" k2="1" k3="1" k4="0"></feComposite></filter></defs><g filter="url(#editing-metal-beveled)"><g transform="translate(39.85468569397926, 104.22781372070312)"><path d="M13.18-32.32L11.39-26.30L11.39-26.30Q15.10-26.62 17.41-26.62L17.41-26.62L17.41-26.62Q19.71-26.62 22.14-25.79L22.14-25.79L22.14-25.79Q24.58-24.96 26.37-23.55L26.37-23.55L26.37-23.55Q30.34-20.42 30.34-16.42L30.34-16.42L30.34-16.42Q30.34-12.42 28.90-9.22L28.90-9.22L28.90-9.22Q27.46-6.02 24.96-3.71L24.96-3.71L24.96-3.71Q19.65 1.28 11.58 1.28L11.58 1.28L11.58 1.28Q5.76 1.28 2.69-0.58L2.69-0.58L2.69-0.58Q-0.38-2.43-0.38-5.98L-0.38-5.98L-0.38-5.98Q-0.38-9.54 1.86-11.46L1.86-11.46L1.86-11.46Q4.54-6.91 10.24-6.91L10.24-6.91L10.24-6.91Q13.70-6.91 15.62-8.51L15.62-8.51L15.62-8.51Q17.54-10.11 17.54-13.18L17.54-13.18L17.54-13.18Q17.54-19.33 8.64-19.33L8.64-19.33L8.64-19.33Q5.25-19.33 3.07-19.07L3.07-19.07L9.09-42.24L24.13-42.24L24.13-42.24Q29.18-42.24 30.78-44.48L30.78-44.48L30.78-44.48Q32.45-43.01 32.45-39.74L32.45-39.74L32.45-39.74Q32.45-36.67 30.02-34.50L30.02-34.50L30.02-34.50Q27.58-32.32 24.13-32.32L24.13-32.32L13.18-32.32ZM75.84-26.56L75.84-26.56L75.84-26.56Q75.84 0.70 46.27 0.70L46.27 0.70L46.27 0.70Q41.54 0.70 33.73-0.45L33.73-0.45L40.90-38.27L40.90-38.27Q41.41-40.83 41.73-42.30L41.73-42.30L41.73-42.30Q51.46-43.01 55.78-43.01L55.78-43.01L55.78-43.01Q60.10-43.01 64.06-42.11L64.06-42.11L64.06-42.11Q68.03-41.22 70.66-39.23L70.66-39.23L70.66-39.23Q75.84-35.33 75.84-26.56ZM62.66-28.93L62.66-28.93L62.66-28.93Q62.66-38.46 55.81-38.46L55.81-38.46L55.17-38.46L55.17-38.46Q54.85-38.46 54.53-38.40L54.53-38.40L47.94-4.03L47.94-4.03Q48.19-3.90 48.45-3.90L48.45-3.90L48.96-3.90L48.96-3.90Q51.33-3.90 53.79-5.38L53.79-5.38L53.79-5.38Q56.26-6.85 58.18-9.86L58.18-9.86L58.18-9.86Q62.66-16.83 62.66-28.93ZM99.65-2.69L99.65-2.69L99.65-2.69Q96.58 1.28 88.96 1.28L88.96 1.28L88.96 1.28Q84.99 1.28 82.11-1.12L82.11-1.12L82.11-1.12Q79.23-3.52 79.23-6.98L79.23-6.98L79.23-6.98Q79.23-8.90 79.42-9.86L79.42-9.86L83.71-32.64L96.70-33.92L92.03-9.22L92.03-9.22Q91.78-7.81 91.78-6.98L91.78-6.98L91.78-6.98Q91.78-3.26 94.02-3.26L94.02-3.26L94.02-3.26Q96.51-3.26 98.30-6.66L98.30-6.66L98.30-6.66Q98.88-7.74 99.14-9.15L99.14-9.15L103.68-32.64L116.29-33.92L111.55-8.96L111.55-8.96Q111.36-8 111.36-6.98L111.36-6.98L111.36-6.98Q111.36-5.95 111.94-4.83L111.94-4.83L111.94-4.83Q112.51-3.71 114.37-3.46L114.37-3.46L114.37-3.46Q113.98-1.92 112.64-0.90L112.64-0.90L112.64-0.90Q109.82 1.28 106.78 1.28L106.78 1.28L106.78 1.28Q103.74 1.28 101.95 0.19L101.95 0.19L101.95 0.19Q100.16-0.90 99.65-2.69ZM140.10-7.23L140.10-7.23L140.10-7.23Q136.77-3.78 130.69-3.78L130.69-3.78L130.69-3.78Q123.07-3.78 121.47-9.34L121.47-9.34L121.47-9.34Q120.96-11.01 120.96-12.86L120.96-12.86L120.96-12.86Q120.96-14.72 121.34-16.64L121.34-16.64L124.35-32.64L137.34-33.92L133.82-15.30L133.82-15.30Q133.70-14.46 133.50-13.57L133.50-13.57L133.50-13.57Q133.31-12.67 133.31-11.74L133.31-11.74L133.31-11.74Q133.31-10.82 133.63-10.21L133.63-10.21L133.63-10.21Q133.95-9.60 134.40-9.22L134.40-9.22L134.40-9.22Q135.17-8.70 136.54-8.70L136.54-8.70L136.54-8.70Q137.92-8.70 139.10-10.37L139.10-10.37L139.10-10.37Q140.29-12.03 140.86-14.91L140.86-14.91L144.38-32.64L156.99-33.92L152.19-8.77L152.19-8.77Q149.82 3.52 144.96 8.38L144.96 8.38L144.96 8.38Q142.46 10.88 139.23 11.87L139.23 11.87L139.23 11.87Q136 12.86 131.84 12.86L131.84 12.86L131.84 12.86Q125.12 12.86 121.28 10.75L121.28 10.75L121.28 10.75Q117.44 8.64 117.44 5.12L117.44 5.12L117.44 5.12Q117.44 2.50 119.42 0.99L119.42 0.99L119.42 0.99Q121.41-0.51 124.48-0.51L124.48-0.51L124.48-0.51Q127.17-0.51 129.22 0.64L129.22 0.64L129.22 0.64Q130.43 1.34 131.01 2.24L131.01 2.24L131.01 2.24Q129.54 3.52 129.54 5.63L129.54 5.63L129.54 5.63Q129.54 8.45 132.10 8.45L132.10 8.45L132.10 8.45Q136.32 8.45 138.75-1.28L138.75-1.28L138.75-1.28Q139.46-4.16 140.10-7.23ZM179.84-2.69L179.84-2.69L179.84-2.69Q176.77 1.28 169.15 1.28L169.15 1.28L169.15 1.28Q165.18 1.28 162.30-1.12L162.30-1.12L162.30-1.12Q159.42-3.52 159.42-6.98L159.42-6.98L159.42-6.98Q159.42-8.90 159.62-9.86L159.62-9.86L163.90-32.64L176.90-33.92L172.22-9.22L172.22-9.22Q171.97-7.81 171.97-6.98L171.97-6.98L171.97-6.98Q171.97-3.26 174.21-3.26L174.21-3.26L174.21-3.26Q176.70-3.26 178.50-6.66L178.50-6.66L178.50-6.66Q179.07-7.74 179.33-9.15L179.33-9.15L183.87-32.64L196.48-33.92L191.74-8.96L191.74-8.96Q191.55-8 191.55-6.98L191.55-6.98L191.55-6.98Q191.55-5.95 192.13-4.83L192.13-4.83L192.13-4.83Q192.70-3.71 194.56-3.46L194.56-3.46L194.56-3.46Q194.18-1.92 192.83-0.90L192.83-0.90L192.83-0.90Q190.02 1.28 186.98 1.28L186.98 1.28L186.98 1.28Q183.94 1.28 182.14 0.19L182.14 0.19L182.14 0.19Q180.35-0.90 179.84-2.69ZM218.56 0L211.20 0L222.78-42.24L236.16-42.24L239.10-18.11L251.01-42.24L262.21-42.24L263.36-10.62L263.36-10.62Q263.62-4.35 266.69-2.43L266.69-2.43L266.69-2.43Q265.98-1.15 263.94 0.06L263.94 0.06L263.94 0.06Q261.89 1.28 259.17 1.28L259.17 1.28L259.17 1.28Q256.45 1.28 254.85 0.51L254.85 0.51L254.85 0.51Q253.25-0.26 252.35-1.54L252.35-1.54L252.35-1.54Q250.75-3.84 250.75-8.26L250.75-8.26L250.75-28.03L238.14 0L230.21 0L225.73-28.74L218.56 0ZM295.36-10.82L295.36-10.82L295.36-10.82Q296.96-9.73 296.96-7.33L296.96-7.33L296.96-7.33Q296.96-4.93 295.74-3.39L295.74-3.39L295.74-3.39Q294.53-1.86 292.54-0.83L292.54-0.83L292.54-0.83Q288.45 1.28 284.03 1.28L284.03 1.28L284.03 1.28Q279.62 1.28 277.02 0.32L277.02 0.32L277.02 0.32Q274.43-0.64 272.70-2.43L272.70-2.43L272.70-2.43Q269.31-5.82 269.31-12.03L269.31-12.03L269.31-12.03Q269.31-21.70 274.56-27.58L274.56-27.58L274.56-27.58Q280.19-33.92 289.98-33.92L289.98-33.92L289.98-33.92Q296.06-33.92 299.07-31.36L299.07-31.36L299.07-31.36Q301.31-29.44 301.31-26.30L301.31-26.30L301.31-26.30Q301.31-15.04 281.86-15.04L281.86-15.04L281.86-15.04Q281.60-13.38 281.60-11.97L281.60-11.97L281.60-11.97Q281.60-9.02 282.91-7.90L282.91-7.90L282.91-7.90Q284.22-6.78 286.66-6.78L286.66-6.78L286.66-6.78Q289.09-6.78 291.68-7.90L291.68-7.90L291.68-7.90Q294.27-9.02 295.36-10.82ZM282.30-17.79L282.30-17.79L282.30-17.79Q286.85-17.79 289.47-20.61L289.47-20.61L289.47-20.61Q292.10-23.30 292.10-27.58L292.10-27.58L292.10-27.58Q292.10-29.06 291.55-29.86L291.55-29.86L291.55-29.86Q291.01-30.66 289.92-30.66L289.92-30.66L289.92-30.66Q288.83-30.66 287.90-30.24L287.90-30.24L287.90-30.24Q286.98-29.82 286.02-28.42L286.02-28.42L286.02-28.42Q283.65-25.22 282.30-17.79ZM323.65-33.92L323.65-33.92L323.65-33.92Q325.95-33.92 327.74-33.41L327.74-33.41L327.74-33.41Q327.81-33.66 327.94-34.37L327.94-34.37L328.26-36.35L328.26-36.35Q328.51-37.63 328.90-39.74L328.90-39.74L329.92-44.80L342.66-46.08L335.55-8.96L335.55-8.96Q335.49-8.58 335.49-7.94L335.49-7.94L335.49-6.91L335.49-6.91Q335.49-5.50 336.19-4.45L336.19-4.45L336.19-4.45Q336.90-3.39 338.05-3.39L338.05-3.39L338.05-3.39Q336.77-0.38 332.86 0.90L332.86 0.90L332.86 0.90Q331.52 1.28 329.63 1.28L329.63 1.28L329.63 1.28Q327.74 1.28 326.02 0.29L326.02 0.29L326.02 0.29Q324.29-0.70 323.78-2.37L323.78-2.37L323.78-2.37Q322.75-0.70 320.70 0.29L320.70 0.29L320.70 0.29Q318.66 1.28 315.68 1.28L315.68 1.28L315.68 1.28Q312.70 1.28 310.24 0.51L310.24 0.51L310.24 0.51Q307.78-0.26 306.24-1.92L306.24-1.92L306.24-1.92Q303.42-5.18 303.42-12.61L303.42-12.61L303.42-12.61Q303.42-22.21 309.06-28.03L309.06-28.03L309.06-28.03Q314.69-33.92 323.65-33.92ZM323.20-30.08L323.20-30.08L323.20-30.08Q320.83-30.08 319.55-27.52L319.55-27.52L319.55-27.52Q318.27-24.96 316.96-18.62L316.96-18.62L316.96-18.62Q315.65-12.29 315.65-6.59L315.65-6.59L315.65-6.59Q315.65-2.69 317.95-2.69L317.95-2.69L317.95-2.69Q320.00-2.69 321.44-4.74L321.44-4.74L321.44-4.74Q322.88-6.78 323.46-10.18L323.46-10.18L326.91-28.93L326.91-28.93Q325.57-30.08 323.20-30.08ZM363.84-7.23L363.84-7.23L363.84-7.23Q360.51-3.78 354.43-3.78L354.43-3.78L354.43-3.78Q346.82-3.78 345.22-9.34L345.22-9.34L345.22-9.34Q344.70-11.01 344.70-12.86L344.70-12.86L344.70-12.86Q344.70-14.72 345.09-16.64L345.09-16.64L348.10-32.64L361.09-33.92L357.57-15.30L357.57-15.30Q357.44-14.46 357.25-13.57L357.25-13.57L357.25-13.57Q357.06-12.67 357.06-11.74L357.06-11.74L357.06-11.74Q357.06-10.82 357.38-10.21L357.38-10.21L357.38-10.21Q357.70-9.60 358.14-9.22L358.14-9.22L358.14-9.22Q358.91-8.70 360.29-8.70L360.29-8.70L360.29-8.70Q361.66-8.70 362.85-10.37L362.85-10.37L362.85-10.37Q364.03-12.03 364.61-14.91L364.61-14.91L368.13-32.64L380.74-33.92L375.94-8.77L375.94-8.77Q373.57 3.52 368.70 8.38L368.70 8.38L368.70 8.38Q366.21 10.88 362.98 11.87L362.98 11.87L362.98 11.87Q359.74 12.86 355.58 12.86L355.58 12.86L355.58 12.86Q348.86 12.86 345.02 10.75L345.02 10.75L345.02 10.75Q341.18 8.64 341.18 5.12L341.18 5.12L341.18 5.12Q341.18 2.50 343.17 0.99L343.17 0.99L343.17 0.99Q345.15-0.51 348.22-0.51L348.22-0.51L348.22-0.51Q350.91-0.51 352.96 0.64L352.96 0.64L352.96 0.64Q354.18 1.34 354.75 2.24L354.75 2.24L354.75 2.24Q353.28 3.52 353.28 5.63L353.28 5.63L353.28 5.63Q353.28 8.45 355.84 8.45L355.84 8.45L355.84 8.45Q360.06 8.45 362.50-1.28L362.50-1.28L362.50-1.28Q363.20-4.16 363.84-7.23ZM385.82-1.92L385.82-1.92L385.82-1.92Q384.32-3.58 383.65-6.21L383.65-6.21L383.65-6.21Q382.98-8.83 382.98-13.12L382.98-13.12L382.98-13.12Q382.98-17.41 384.45-21.31L384.45-21.31L384.45-21.31Q385.92-25.22 388.61-28.03L388.61-28.03L388.61-28.03Q394.11-33.92 403.20-33.92L403.20-33.92L403.20-33.92Q406.46-33.92 408.83-32.83L408.83-32.83L419.78-33.92L415.04-8.96L415.04-8.96Q414.85-8.19 414.85-6.78L414.85-6.78L414.85-6.78Q414.85-5.38 415.71-4.48L415.71-4.48L415.71-4.48Q416.58-3.58 417.86-3.46L417.86-3.46L417.86-3.46Q417.22-1.28 414.88 0L414.88 0L414.88 0Q412.54 1.28 409.92 1.28L409.92 1.28L409.92 1.28Q407.30 1.28 405.54 0.29L405.54 0.29L405.54 0.29Q403.78-0.70 403.26-2.37L403.26-2.37L403.26-2.37Q402.24-0.77 400.06 0.26L400.06 0.26L400.06 0.26Q397.89 1.28 394.98 1.28L394.98 1.28L394.98 1.28Q392.06 1.28 389.70 0.51L389.70 0.51L389.70 0.51Q387.33-0.26 385.82-1.92ZM399.33-27.90L399.33-27.90L399.33-27.90Q398.59-26.75 397.95-24.80L397.95-24.80L397.95-24.80Q397.31-22.85 396.26-17.63L396.26-17.63L396.26-17.63Q395.20-12.42 395.20-8.70L395.20-8.70L395.20-8.70Q395.20-4.99 395.78-3.90L395.78-3.90L395.78-3.90Q396.35-2.82 397.38-2.82L397.38-2.82L397.38-2.82Q399.42-2.82 400.93-4.77L400.93-4.77L400.93-4.77Q402.43-6.72 403.01-10.18L403.01-10.18L406.40-28.93L406.40-28.93Q405.06-30.08 403.49-30.08L403.49-30.08L403.49-30.08Q401.92-30.08 400.99-29.57L400.99-29.57L400.99-29.57Q400.06-29.06 399.33-27.90Z" fill="#444"></path></g></g><style>text {
  font-size: 64px;
  font-family: Arial Black;
  dominant-baseline: central;
  text-anchor: middle;
}</style></svg>