<svg width="361.46621093749997px" height="178.43984375px" xmlns="http://www.w3.org/2000/svg" viewBox="69.26689453125002 -14.219921874999997 361.46621093749997 178.43984375" style="background: rgba(0, 0, 0, 0);" preserveAspectRatio="xMidYMid"><defs><linearGradient id="editing-gradient-gradient" x1="0.07141634964894383" x2="0.9285836503510562" y1="0.24248096254497292" y2="0.7575190374550271" gradientUnits="objectBoundingBox"><stop offset="0" stop-color="#f0f"></stop><stop offset="1" stop-color="#0ff"></stop></linearGradient></defs><g><g transform="translate(124.48906087875366, 110.0999984741211)"><path d="M53.90-20.70L53.90-20.70L53.90-20.70Q56.50-18.80 56.50-14.75L56.50-14.75L56.50-14.75Q56.50-10.70 54.75-7.85L54.75-7.85L54.75-7.85Q53-5 49.60-2.80L49.60-2.80L49.60-2.80Q42.30 1.90 29.55 1.90L29.55 1.90L29.55 1.90Q16.80 1.90 9.85-4.75L9.85-4.75L9.85-4.75Q2.90-11.40 2.90-23.20L2.90-23.20L2.90-23.20Q2.90-39.90 11.60-52.60L11.60-52.60L11.60-52.60Q18.20-62 30-66L30-66L30-66Q36.10-68 42.10-68L42.10-68L42.10-68Q48.10-68 51.80-67.20L51.80-67.20L51.80-67.20Q55.50-66.40 58.30-64.80L58.30-64.80L58.30-64.80Q64.40-61.30 64.40-55.70L64.40-55.70L64.40-55.70Q64.40-50.60 59.60-46.80L59.60-46.80L59.60-46.80Q55.20-43.40 51.60-43.40L51.60-43.40L51.60-43.40Q48-43.40 46.50-43.90L46.50-43.90L46.50-43.90Q46.90-47.50 46.90-49.85L46.90-49.85L46.90-49.85Q46.90-52.20 46.80-53.90L46.80-53.90L46.80-53.90Q46.70-55.60 46.20-57.20L46.20-57.20L46.20-57.20Q45.20-60.90 42.15-60.90L42.15-60.90L42.15-60.90Q39.10-60.90 36.05-58.05L36.05-58.05L36.05-58.05Q33-55.20 30.40-50.40L30.40-50.40L30.40-50.40Q24.50-39.50 24.50-26.60L24.50-26.60L24.50-26.60Q24.50-20.40 28-16.85L28-16.85L28-16.85Q31.50-13.30 39-13.30L39-13.30L39-13.30Q44.60-13.30 49.90-17L49.90-17L49.90-17Q52.20-18.60 53.90-20.70ZM129.70-41.50L129.70-41.50L129.70-41.50Q129.70 1.10 83.50 1.10L83.50 1.10L83.50 1.10Q76.10 1.10 63.90-0.70L63.90-0.70L75.10-59.80L75.10-59.80Q75.90-63.80 76.40-66.10L76.40-66.10L76.40-66.10Q91.60-67.20 98.35-67.20L98.35-67.20L98.35-67.20Q105.10-67.20 111.30-65.80L111.30-65.80L111.30-65.80Q117.50-64.40 121.60-61.30L121.60-61.30L121.60-61.30Q129.70-55.20 129.70-41.50ZM109.10-45.20L109.10-45.20L109.10-45.20Q109.10-60.10 98.40-60.10L98.40-60.10L97.40-60.10L97.40-60.10Q96.90-60.10 96.40-60L96.40-60L86.10-6.30L86.10-6.30Q86.50-6.10 86.90-6.10L86.90-6.10L87.70-6.10L87.70-6.10Q91.40-6.10 95.25-8.40L95.25-8.40L95.25-8.40Q99.10-10.70 102.10-15.40L102.10-15.40L102.10-15.40Q109.10-26.30 109.10-45.20ZM142.80-48.70L142.80-48.70L142.80-48.70Q139.40-51.30 139.40-56.85L139.40-56.85L139.40-56.85Q139.40-62.40 143.05-65.30L143.05-65.30L143.05-65.30Q146.70-68.20 153-68.20L153-68.20L153-68.20Q157-68.20 166.50-66.80L166.50-66.80L173.30-65.80L173.30-65.80Q176.70-65.40 180.25-65.40L180.25-65.40L180.25-65.40Q183.80-65.40 186.20-66.90L186.20-66.90L186.20-66.90Q189.80-63.70 189.80-59.10L189.80-59.10L189.80-59.10Q189.80-54.50 185.70-51.20L185.70-51.20L185.70-51.20Q181.50-47.70 176.10-47.70L176.10-47.70L176.10-47.70Q173.50-47.70 169.30-48.40L169.30-48.40L169.30-48.40Q164.40-33 164.40-22.30L164.40-22.30L164.40-22.30Q164.40-11.60 169.80-6L169.80-6L169.80-6Q167.30-1.50 163.60 0.25L163.60 0.25L163.60 0.25Q159.90 2 154.35 2L154.35 2L154.35 2Q148.80 2 145.35-1.05L145.35-1.05L145.35-1.05Q141.90-4.10 141.90-10.40L141.90-10.40L141.90-10.40Q141.90-17.70 145.90-29.70L145.90-29.70L145.90-29.70Q149.90-41.60 155.90-50.70L155.90-50.70L155.90-50.70Q153-51 150-51L150-51L150-51Q143.80-51 142.80-48.70ZM225.70-66.70L225.70-66.70L225.70-66.70Q250.20-66.70 250.20-49.40L250.20-49.40L250.20-49.40Q250.20-39.90 244.10-34.20L244.10-34.20L244.10-34.20Q238.10-28.50 227.60-28.50L227.60-28.50L227.60-28.50Q222.70-28.50 218.90-31.30L218.90-31.30L218.90-31.30Q217.10-32.50 215.90-34.10L215.90-34.10L215.90-34.10Q223.20-34.10 227.05-38.55L227.05-38.55L227.05-38.55Q230.90-43 230.90-51.70L230.90-51.70L230.90-51.70Q230.90-60.40 222.30-60.40L222.30-60.40L219.90-60.40L219.90-60.40Q219.30-60.40 218.80-60.30L218.80-60.30L207.30 0L185.60 0L197.90-65.50L197.90-65.50Q208.60-66.50 214.80-66.60L214.80-66.60L214.80-66.60Q221-66.70 225.70-66.70Z" fill="url(#editing-gradient-gradient)"></path></g></g><style>text {
  font-size: 64px;
  font-family: Arial Black;
  dominant-baseline: central;
  text-anchor: middle;
}</style></svg>