<svg width="238.55622558593748px" height="122.021240234375px" xmlns="http://www.w3.org/2000/svg" viewBox="130.72188720703127 13.9893798828125 238.55622558593748 122.021240234375" style="background: rgba(0, 0, 0, 0);" preserveAspectRatio="xMidYMid"><defs><linearGradient id="editing-gradient-gradient" x1="0" x2="1" y1="0.5" y2="0.5" gradientUnits="objectBoundingBox"><stop offset="0" stop-color="#f0f"></stop><stop offset="1" stop-color="#0ff"></stop></linearGradient></defs><g><g transform="translate(169.66906034946442, 97.45718765258789)"><path d="M34.50-13.25L34.50-13.25L34.50-13.25Q36.16-12.03 36.16-9.44L36.16-9.44L36.16-9.44Q36.16-6.85 35.04-5.02L35.04-5.02L35.04-5.02Q33.92-3.20 31.74-1.79L31.74-1.79L31.74-1.79Q27.07 1.22 18.91 1.22L18.91 1.22L18.91 1.22Q10.75 1.22 6.30-3.04L6.30-3.04L6.30-3.04Q1.86-7.30 1.86-14.85L1.86-14.85L1.86-14.85Q1.86-25.54 7.42-33.66L7.42-33.66L7.42-33.66Q11.65-39.68 19.20-42.24L19.20-42.24L19.20-42.24Q23.10-43.52 26.94-43.52L26.94-43.52L26.94-43.52Q30.78-43.52 33.15-43.01L33.15-43.01L33.15-43.01Q35.52-42.50 37.31-41.47L37.31-41.47L37.31-41.47Q41.22-39.23 41.22-35.65L41.22-35.65L41.22-35.65Q41.22-32.38 38.14-29.95L38.14-29.95L38.14-29.95Q35.33-27.78 33.02-27.78L33.02-27.78L33.02-27.78Q30.72-27.78 29.76-28.10L29.76-28.10L29.76-28.10Q30.02-30.40 30.02-31.90L30.02-31.90L30.02-31.90Q30.02-33.41 29.95-34.50L29.95-34.50L29.95-34.50Q29.89-35.58 29.57-36.61L29.57-36.61L29.57-36.61Q28.93-38.98 26.98-38.98L26.98-38.98L26.98-38.98Q25.02-38.98 23.07-37.15L23.07-37.15L23.07-37.15Q21.12-35.33 19.46-32.26L19.46-32.26L19.46-32.26Q15.68-25.28 15.68-17.02L15.68-17.02L15.68-17.02Q15.68-13.06 17.92-10.78L17.92-10.78L17.92-10.78Q20.16-8.51 24.96-8.51L24.96-8.51L24.96-8.51Q28.54-8.51 31.94-10.88L31.94-10.88L31.94-10.88Q33.41-11.90 34.50-13.25ZM83.01-26.56L83.01-26.56L83.01-26.56Q83.01 0.70 53.44 0.70L53.44 0.70L53.44 0.70Q48.70 0.70 40.90-0.45L40.90-0.45L48.06-38.27L48.06-38.27Q48.58-40.83 48.90-42.30L48.90-42.30L48.90-42.30Q58.62-43.01 62.94-43.01L62.94-43.01L62.94-43.01Q67.26-43.01 71.23-42.11L71.23-42.11L71.23-42.11Q75.20-41.22 77.82-39.23L77.82-39.23L77.82-39.23Q83.01-35.33 83.01-26.56ZM69.82-28.93L69.82-28.93L69.82-28.93Q69.82-38.46 62.98-38.46L62.98-38.46L62.34-38.46L62.34-38.46Q62.02-38.46 61.70-38.40L61.70-38.40L55.10-4.03L55.10-4.03Q55.36-3.90 55.62-3.90L55.62-3.90L56.13-3.90L56.13-3.90Q58.50-3.90 60.96-5.38L60.96-5.38L60.96-5.38Q63.42-6.85 65.34-9.86L65.34-9.86L65.34-9.86Q69.82-16.83 69.82-28.93ZM91.39-31.17L91.39-31.17L91.39-31.17Q89.22-32.83 89.22-36.38L89.22-36.38L89.22-36.38Q89.22-39.94 91.55-41.79L91.55-41.79L91.55-41.79Q93.89-43.65 97.92-43.65L97.92-43.65L97.92-43.65Q100.48-43.65 106.56-42.75L106.56-42.75L110.91-42.11L110.91-42.11Q113.09-41.86 115.36-41.86L115.36-41.86L115.36-41.86Q117.63-41.86 119.17-42.82L119.17-42.82L119.17-42.82Q121.47-40.77 121.47-37.82L121.47-37.82L121.47-37.82Q121.47-34.88 118.85-32.77L118.85-32.77L118.85-32.77Q116.16-30.53 112.70-30.53L112.70-30.53L112.70-30.53Q111.04-30.53 108.35-30.98L108.35-30.98L108.35-30.98Q105.22-21.12 105.22-14.27L105.22-14.27L105.22-14.27Q105.22-7.42 108.67-3.84L108.67-3.84L108.67-3.84Q107.07-0.96 104.70 0.16L104.70 0.16L104.70 0.16Q102.34 1.28 98.78 1.28L98.78 1.28L98.78 1.28Q95.23 1.28 93.02-0.67L93.02-0.67L93.02-0.67Q90.82-2.62 90.82-6.66L90.82-6.66L90.82-6.66Q90.82-11.33 93.38-19.01L93.38-19.01L93.38-19.01Q95.94-26.62 99.78-32.45L99.78-32.45L99.78-32.45Q97.92-32.64 96-32.64L96-32.64L96-32.64Q92.03-32.64 91.39-31.17ZM144.45-42.69L144.45-42.69L144.45-42.69Q160.13-42.69 160.13-31.62L160.13-31.62L160.13-31.62Q160.13-25.54 156.22-21.89L156.22-21.89L156.22-21.89Q152.38-18.24 145.66-18.24L145.66-18.24L145.66-18.24Q142.53-18.24 140.10-20.03L140.10-20.03L140.10-20.03Q138.94-20.80 138.18-21.82L138.18-21.82L138.18-21.82Q142.85-21.82 145.31-24.67L145.31-24.67L145.31-24.67Q147.78-27.52 147.78-33.09L147.78-33.09L147.78-33.09Q147.78-38.66 142.27-38.66L142.27-38.66L140.74-38.66L140.74-38.66Q140.35-38.66 140.03-38.59L140.03-38.59L132.67 0L118.78 0L126.66-41.92L126.66-41.92Q133.50-42.56 137.47-42.62L137.47-42.62L137.47-42.62Q141.44-42.69 144.45-42.69Z" fill="url(#editing-gradient-gradient)"></path></g></g><style>text {
  font-size: 64px;
  font-family: Arial Black;
  dominant-baseline: central;
  text-anchor: middle;
}</style></svg>